<svg xmlns="http://www.w3.org/2000/svg" viewBox="0 0 1035.9 248">
  <path d="M17.9 78c0 22.5 11.6 28.3 39.2 28.3 23.2 0 39.2-5.1 39.2-30.5 0-26.1-17.4-28.3-36.3-29.7-18.9-1.5-28.3 0-28.3-16.7 0-13.1 3.6-18.1 25.4-18.1 20.3 0 25.4 3.6 25.4 16.7v2.2h12.3V28C94.8 6.2 81.7.4 57.1.4c-26.1 0-37.7 7.3-37.7 29 0 25.4 14.5 26.8 34.8 28.3C74.5 59.1 84 59.1 84 75.8c0 15.2-8 19.6-26.8 19.6-23.2 0-26.8-5.1-26.8-17.4v-2.2H17.9V78zM207.4 105.5c32.7 0 37-13.1 37-42.1v-61H232v61c0 21.8-2.2 31.2-24.7 31.2s-24.7-9.4-24.7-31.2v-61h-12.3v61c0 29.1 4.4 42.1 37.1 42.1M381.7 104.1h19.9V2.5h-12.3v91.4L342.4 2.5h-19.9v101.6h12.3V12.7zM513.2 93.2h-21V13.4h21c29 0 32.7 15.2 32.7 39.9-.1 27.6-3.7 39.9-32.7 39.9m0 10.9c39.2 0 45-18.9 45-50.8 0-30.5-5.8-50.8-45-50.8h-33.4v101.6h33.4zM670.4 95.4c-25.4 0-32.7-9.4-32.7-42.1 0-29.7 7.3-42.1 32.7-42.1S703 23.6 703 53.3c0 32.7-7.2 42.1-32.6 42.1m0 10.9c35.5 0 45-16 45-53 0-35.6-9.4-53-45-53s-45 17.4-45 53c0 37 9.4 53 45 53M858.3 63.5v5.1c0 22.5-11.6 26.8-29.8 26.8-25.4 0-32.7-9.4-32.7-42.1 0-29.7 7.3-42.1 32.7-42.1 16.7 0 28.3 6.5 28.3 21.8v1.5h12.3v-2.2C869.1 12 855.3.4 828.5.4c-35.6 0-45 17.4-45 53 0 37 9.4 53 45 53 13.8 0 25-3.9 29.8-12.3l1.5 10.2h12.3l-1.5-10.2V52.6h-47.2v10.9h34.9zM939.6 78c0 22.5 11.6 28.3 39.2 28.3 23.2 0 39.2-5.1 39.2-30.5 0-26.1-17.4-28.3-36.3-29.7-18.9-1.5-28.3 0-28.3-16.7 0-13.1 3.6-18.1 25.4-18.1 20.3 0 25.4 3.6 25.4 16.7v2.2h12.3V28c0-21.8-13.1-27.6-37.7-27.6-26.1 0-37.7 7.3-37.7 29 0 25.4 14.5 26.8 34.8 28.3 20.3 1.5 29.7 1.5 29.7 18.1 0 15.2-8 19.6-26.9 19.6-23.2 0-26.8-5.1-26.8-17.4v-2.2h-12.3V78zM567.3 237.8c0 7.9 4.1 9.9 13.7 9.9 8.1 0 13.7-1.8 13.7-10.7 0-9.1-6.1-9.9-12.7-10.4s-9.9 0-9.9-5.8c0-4.6 1.3-6.3 8.9-6.3 7.1 0 8.9 1.3 8.9 5.8v.8h4.3v-.8c0-7.6-4.6-9.6-13.2-9.6-9.1 0-13.2 2.5-13.2 10.2 0 8.9 5.1 9.4 12.2 9.9s10.4.5 10.4 6.4c0 5.3-2.8 6.9-9.4 6.9-8.1 0-9.4-1.8-9.4-6.1v-1h-4.3v.8zm-11.2-26.5h-4.3v35.5h4.3v-35.5zm-37.3 35.6v-14.7h7.8l10 14.7h4.8l-10-14.8c7.7-.8 8.5-5.6 8.5-10.3 0-5.1-1-10.4-10.7-10.4h-14.7v35.5h4.3zm9.9-18.5h-9.9v-13.2h9.9c6.1 0 7.1 2 7.1 6.6 0 4.5-1 6.6-7.1 6.6m-28.4 18.5h4.3l-11.9-35.5h-5.6l-11.9 35.5h4.3l3-9.1h14.8l3 9.1zm-16.6-13l6.1-19.1h.1l6.1 19.1h-12.3zm-23-5.5h-9.9v-13.2h9.9c6.1 0 7.1 2 7.1 6.6 0 4.5-1.1 6.6-7.1 6.6m.5 3.8c9.7 0 10.7-5.3 10.7-10.4 0-5.1-1-10.4-10.7-10.4h-14.7v35.5h4.3v-14.7h10.4zM523.6 151.3h-6l-4.2 4.2v5.9l4.2 4.2h6l4.2-4.2v-5.9z"/>
</svg>